<?xml version="1.0"?>
<svg style="fill:#3a3a3a" xmlns="http://www.w3.org/2000/svg" id="Line_cutting_cut_Ex" data-name="Line cutting cut Ex" width="512" height="512" viewBox="0 0 512 512"><g><path d="M425.6479,86.3521A238.6233,238.6233,0,0,0,255.8037,16,244.04,244.04,0,0,0,231.19,17.2461l1.621,15.918A227.8466,227.8466,0,0,1,255.8037,32,222.6088,222.6088,0,0,1,408.5791,92.1074l-30.2358,30.2359,11.3134,11.3134,30.2359-30.2358A222.6088,222.6088,0,0,1,480,256.1963q0,4.8228-.1985,9.6069L443.5732,274.86a12,12,0,0,1-14.79-9.9439l-1.2646-8.8555a28,28,0,0,0-38.1177-22.0376l-32.1348,12.854a22.0965,22.0965,0,0,1-27.272-9.5117l-7.68-13.44a22.0483,22.0483,0,0,1,3.5449-26.4717l47.7973-47.7974-11.3134-11.3134-47.7974,47.7973a38.0827,38.0827,0,0,0-6.123,45.7237l7.68,13.44a38.166,38.166,0,0,0,47.106,16.4287l32.1348-12.854a12.0007,12.0007,0,0,1,16.3364,9.4443l1.2646,8.8555a28.0107,28.0107,0,0,0,34.51,23.2041l31.0259-7.7565a221.107,221.107,0,0,1-22.18,74.008q-2.54,5.06-5.3428,9.992l-67.6885-15.62a38,38,0,0,0-45.64,28.7837l-2.7573,12.4082a22,22,0,0,1-26.812,16.5708l-14.1-3.5249a38.2215,38.2215,0,0,0-40.3472,15.0737l-39.3774,56.2532a224.4855,224.4855,0,0,1-173.95-282.3631l-15.379-4.415a240.2626,240.2626,0,0,0,363.5167,266.7l-8.8448-13.333a223.1846,223.1846,0,0,1-123.7744,37.2334,228.2263,228.2263,0,0,1-23.8423-1.2447L266.72,429.4932a22.1294,22.1294,0,0,1,23.3589-8.7271l14.1,3.5249a38,38,0,0,0,46.312-28.6221l2.7573-12.4086a22,22,0,0,1,26.4229-16.6646l62.3894,14.3976a226.6463,226.6463,0,0,1-49.2473,52.6776l9.7871,12.6582a242.4477,242.4477,0,0,0,68-82.5171,240.37,240.37,0,0,0-44.9522-277.46Z"/><path d="M285.2656,281.26l-14.14,9.4267A15.9661,15.9661,0,0,0,264,304v16.6191a16.01,16.01,0,0,0,21.06,15.1788l26.94-8.98a16,16,0,0,0,7.74-24.7793l-12.7993-17.065A16.0055,16.0055,0,0,0,285.2656,281.26ZM306.94,311.6392l-26.94,8.98V304l14.1406-9.4268Z"/><path d="M313.498,122.2529A16.95,16.95,0,0,0,322.24,119.8l13.5064-8.1045a17,17,0,0,0,0-29.1543l-13.5073-8.1045a17,17,0,0,0-25.7466,14.5772v16.209a17.073,17.073,0,0,0,17.0053,17.03Zm-1.0053-33.2392a.9178.9178,0,0,1,.5073-.87A1.0105,1.0105,0,0,1,313.5024,88a.9543.9543,0,0,1,.5049.1562l13.5069,8.1045h0a1,1,0,0,1,0,1.7149L314.0078,106.08a1,1,0,0,1-1.5151-.8574Z"/><path d="M220.0635,350.7607a19.8633,19.8633,0,0,0,.2881-15.2993l-7.2334-18.39-14.89,5.8564,7.2334,18.39a4.0355,4.0355,0,0,1-2.2578,5.1865l-13.228,5.2031a8,8,0,0,0-3.5064,12.1983l13.3911,18.1284a11.999,11.999,0,0,1-4.4824,17.9585l-13.5337,6.4614a11.9377,11.9377,0,0,1-4.3911,1.145l-8.1313.5283A11.9982,11.9982,0,0,1,156.57,396.9312l-.7173-11.0347a27.9127,27.9127,0,0,0-25.1381-26.044l-14.7032-1.479a11.9621,11.9621,0,0,1-10.7734-11.1611l-1.2119-18.6577a11.9335,11.9335,0,0,1,5.9228-11.1406L101.88,303.5977a27.8467,27.8467,0,0,0-13.8213,25.9941L89.2715,348.25A27.9127,27.9127,0,0,0,114.41,374.2935l14.7031,1.479a11.9621,11.9621,0,0,1,10.7734,11.1616l.7168,11.0347a28.0362,28.0362,0,0,0,27.9229,26.185c.6069,0,1.22-.02,1.8335-.06l8.1318-.5288a27.88,27.88,0,0,0,10.2471-2.6723l13.5332-6.461A27.9992,27.9992,0,0,0,212.73,372.5273l-7.1983-9.7451,3.5288-1.3882A19.861,19.861,0,0,0,220.0635,350.7607Z"/><path d="M83.4434,219.9912C65.2334,188.5479,56,160.2891,56,136a104,104,0,0,1,208,0c0,72.5645-81.8921,158.874-104.0044,180.8521-12.1445-12.0494-42.291-43.44-66.918-81.2208l-13.4038,8.7374c32.586,49.9917,73.1709,87.9042,74.8828,89.4936a7.9993,7.9993,0,0,0,10.8868,0,542.2163,542.2163,0,0,0,56.936-64.0347C260.6138,219.3037,280,174.2773,280,136a120,120,0,0,0-240,0c0,27.1416,9.958,58.0981,29.5977,92.01Z"/><path d="M224,144a64,64,0,1,0-64,64A64.0726,64.0726,0,0,0,224,144Zm-112,0a48,48,0,1,1,48,48A48.0543,48.0543,0,0,1,112,144Z"/></g></svg>
