<?xml version="1.0" encoding="iso-8859-1"?>
<!-- Generator: Adobe Illustrator 19.0.0, SVG Export Plug-In . SVG Version: 6.00 Build 0)  -->
<svg version="1.1" id="Capa_1" xmlns="http://www.w3.org/2000/svg" xmlns:xlink="http://www.w3.org/1999/xlink" x="0px" y="0px"
	 viewBox="0 0 511.999 511.999" style="fill:#3a3a3a" xml:space="preserve">
<g>
	<g>
		<path d="M445.007,17.487c-8.894-8.895-20.723-13.795-33.304-13.795H64.517C28.943,3.692,0,32.635,0,68.211
			s28.943,64.518,64.517,64.518h385.63c4.779,0,8.656-3.875,8.655-8.655V50.793C458.803,38.211,453.904,26.383,445.007,17.487z
			 M441.49,115.417H64.517c-26.028,0-47.205-21.176-47.205-47.206c0-26.03,21.176-47.207,47.205-47.207h347.185
			c7.957,0,15.437,3.098,21.063,8.724c5.627,5.625,8.724,13.106,8.724,21.063V115.417z"/>
	</g>
</g>
<g>
	<g>
		<path d="M498.449,269.667H395.423c-26.183,0-47.485,21.302-47.485,47.484c0,26.182,21.302,47.484,47.485,47.484h103.025
			c7.471,0,13.551-6.078,13.55-13.55v-67.867C511.999,275.745,505.92,269.667,498.449,269.667z M494.686,347.323h-99.263
			c-16.637,0-30.172-13.535-30.172-30.171c0-16.636,13.535-30.171,30.172-30.171h99.263V347.323z"/>
	</g>
</g>
<g>
	<g>
		<circle cx="397.678" cy="317.154" r="18.395"/>
	</g>
</g>
<g>
	<g>
		<path d="M498.2,286.978c4.78,0,8.656-3.876,8.656-8.656V162.613c0-26.024-21.172-47.196-47.196-47.196H64.517
			c-26.028,0-47.205-21.176-47.205-47.206c0-4.78-3.876-8.656-8.656-8.656S0,63.431,0,68.211V461.11
			c0,26.025,21.172,47.197,47.196,47.197H459.66c26.024,0,47.197-21.172,47.196-47.196V355.979c0-4.78-3.876-8.656-8.656-8.656
			s-8.656,3.876-8.656,8.656v105.132c0,16.478-13.405,29.885-29.883,29.885H47.196c-16.477,0-29.883-13.406-29.883-29.885V112.148
			C29.1,124.802,45.904,132.73,64.524,132.73H459.66c16.477,0,29.883,13.405,29.883,29.883v115.708
			C489.544,283.102,493.419,286.978,498.2,286.978z"/>
	</g>
</g>
<g>
	<g>
		<path d="M369.381,59.555H75.592c-4.78,0-8.656,3.876-8.656,8.656s3.876,8.656,8.656,8.656h293.789c4.78,0,8.656-3.876,8.656-8.656
			S374.161,59.555,369.381,59.555z"/>
	</g>
</g>
<g>
</g>
<g>
</g>
<g>
</g>
<g>
</g>
<g>
</g>
<g>
</g>
<g>
</g>
<g>
</g>
<g>
</g>
<g>
</g>
<g>
</g>
<g>
</g>
<g>
</g>
<g>
</g>
<g>
</g>
</svg>
