<!DOCTYPE svg PUBLIC "-//W3C//DTD SVG 20010904//EN" "http://www.w3.org/TR/2001/REC-SVG-20010904/DTD/svg10.dtd">
<svg version="1.0" xmlns="http://www.w3.org/2000/svg" width="512px" height="512px" viewBox="0 0 5120 5120" preserveAspectRatio="xMidYMid meet">
<g id="layer101" fill="#000000" stroke="none">
</g>
<g id="layer102" fill="#ec644b" stroke="none">
<path d="M2375 5109 c-781 -59 -1477 -458 -1923 -1103 -199 -286 -343 -635 -406 -981 -54 -296 -54 -634 0 -930 164 -899 807 -1647 1674 -1950 278 -97 530 -138 840 -138 190 0 303 9 465 39 1036 189 1860 1013 2049 2049 29 160 39 274 39 460 1 409 -82 764 -263 1130 -255 517 -648 910 -1165 1165 -310 153 -602 231 -969 260 -143 11 -181 11 -341 -1z m289 -580 c101 -64 155 -89 285 -134 177 -61 247 -93 363 -171 121 -80 249 -201 333 -312 115 -154 211 -367 244 -542 7 -36 14 -75 17 -87 l4 -22 71 30 c83 34 109 36 109 12 -1 -36 -147 -517 -158 -521 -20 -6 -481 261 -482 279 0 11 27 26 85 49 l85 33 0 41 c-1 112 -77 338 -157 463 -100 158 -266 316 -368 350 -112 37 -225 5 -309 -88 -79 -88 -76 -48 -76 -891 l0 -748 259 0 c247 0 259 -1 285 -21 37 -29 56 -71 56 -124 0 -58 -22 -97 -70 -124 -35 -20 -53 -21 -284 -21 l-246 0 0 -164 0 -164 49 -17 c104 -34 225 -135 284 -236 69 -117 94 -282 63 -413 -50 -211 -209 -372 -417 -421 -128 -30 -288 -9 -402 52 -257 140 -359 472 -228 746 55 115 175 225 292 268 l59 22 0 163 0 164 -246 0 c-231 0 -249 1 -284 21 -48 27 -70 66 -70 124 0 53 19 95 56 124 26 20 38 21 285 21 l259 0 0 750 c0 723 -1 751 -20 802 -48 129 -197 215 -326 188 -157 -33 -384 -274 -485 -514 -42 -102 -78 -244 -79 -311 l0 -40 85 -34 c62 -25 85 -39 83 -50 -4 -18 -456 -282 -477 -278 -13 2 -160 478 -161 520 0 24 26 22 107 -12 l70 -29 18 92 c49 256 167 482 349 674 168 175 321 271 582 362 158 56 224 87 291 137 68 52 137 53 217 2z"/>
<path d="M2519 1369 c-212 -34 -294 -290 -142 -442 164 -165 443 -51 445 181 1 159 -146 287 -303 261z"/>
</g>


</svg>