<?xml version="1.0" encoding="iso-8859-1"?>
<!-- Generator: Adobe Illustrator 19.0.0, SVG Export Plug-In . SVG Version: 6.00 Build 0)  -->
<svg version="1.1" id="Capa_1" xmlns="http://www.w3.org/2000/svg" xmlns:xlink="http://www.w3.org/1999/xlink" x="0px" y="0px"
	 viewBox="0 0 512 512" style="fill:rgb(255,255,255)" xml:space="preserve">
<g>
	<g>
		<path d="M395.536,91.688L207.156,0.746c-2.061-0.995-4.461-0.995-6.521,0L12.255,91.688c-2.592,1.251-4.239,3.875-4.239,6.754
			V319.3c0,2.878,1.647,5.503,4.239,6.754l188.379,90.941c1.03,0.498,2.146,0.746,3.261,0.746s2.23-0.249,3.261-0.746l38.128-18.406
			c3.73-1.801,5.294-6.285,3.494-10.015c-1.801-3.73-6.285-5.292-10.015-3.494l-27.367,13.212V194.091l37.125-17.923
			c3.73-1.801,5.294-6.284,3.493-10.015c-1.801-3.729-6.285-5.292-10.015-3.493l-38.104,18.396L32.767,98.442L89.87,70.875
			l181.227,87.489v72.104c0,2.581,1.327,4.98,3.513,6.353c1.214,0.762,2.599,1.147,3.988,1.147c1.112,0,2.227-0.247,3.26-0.746
			l45.471-21.952c2.592-1.251,4.239-3.875,4.239-6.754v-72.439l53.207-25.686v137.594c0,4.142,3.358,7.5,7.5,7.5
			c4.142,0,7.5-3.358,7.5-7.5V98.442C399.775,95.564,398.128,92.939,395.536,91.688z M196.395,194.091v204.202l-173.379-83.7
			V110.391L196.395,194.091z M278.249,145.161l-170.807-82.46l32.33-15.67l170.873,82.491L278.249,145.161z M316.568,203.808
			l-30.471,14.71v-60.49l30.471-14.71V203.808z M327.847,121.216c-0.172-0.101-0.337-0.21-0.518-0.297l-170.561-82.34l47.127-22.751
			l171.128,82.613L327.847,121.216z"/>
	</g>
</g>
<g>
	<g>
		<path d="M78.863,289.937l-27.645-13.346c-3.731-1.803-8.214-0.237-10.015,3.493c-1.801,3.73-0.237,8.214,3.493,10.015
			l27.645,13.346c1.051,0.508,2.162,0.748,3.255,0.748c2.788,0,5.466-1.562,6.759-4.241
			C84.157,296.221,82.593,291.738,78.863,289.937z"/>
	</g>
</g>
<g>
	<g>
		<path d="M104.305,268.366l-53.049-25.61c-3.732-1.803-8.215-0.237-10.015,3.493c-1.801,3.73-0.237,8.214,3.493,10.015
			l53.049,25.609c1.051,0.508,2.162,0.748,3.255,0.748c2.788,0,5.466-1.562,6.759-4.241
			C109.599,274.651,108.035,270.167,104.305,268.366z"/>
	</g>
</g>
<g>
	<g>
		<path d="M384.258,272.549c-66.017,0-119.726,53.709-119.726,119.726S318.241,512,384.258,512s119.726-53.708,119.726-119.726
			S450.276,272.549,384.258,272.549z M384.258,497c-57.746,0-104.726-46.979-104.726-104.726s46.98-104.726,104.726-104.726
			c57.746,0,104.726,46.98,104.726,104.726C488.984,450.02,442.005,497,384.258,497z"/>
	</g>
</g>
<g>
	<g>
		<path d="M464.42,384.775h-57.862c-2.344-6.951-7.849-12.456-14.8-14.8v-57.862c0-4.142-3.358-7.5-7.5-7.5
			c-4.142,0-7.5,3.358-7.5,7.5v57.862c-9.308,3.139-16.033,11.946-16.033,22.3c0,12.976,10.557,23.532,23.533,23.532
			c10.353,0,19.16-6.724,22.3-16.032h57.862c4.142,0,7.5-3.358,7.5-7.5C471.92,388.133,468.562,384.775,464.42,384.775z
			 M384.258,400.807c-4.705,0-8.533-3.828-8.533-8.532c0-4.705,3.828-8.533,8.533-8.533c4.705,0,8.532,3.828,8.532,8.533
			C392.791,396.979,388.963,400.807,384.258,400.807z"/>
	</g>
</g>
<g>
</g>
<g>
</g>
<g>
</g>
<g>
</g>
<g>
</g>
<g>
</g>
<g>
</g>
<g>
</g>
<g>
</g>
<g>
</g>
<g>
</g>
<g>
</g>
<g>
</g>
<g>
</g>
<g>
</g>
</svg>
