<?xml version="1.0" encoding="iso-8859-1"?>
<!-- Generator: Adobe Illustrator 19.0.0, SVG Export Plug-In . SVG Version: 6.00 Build 0)  -->
<svg version="1.1" id="Layer_1" xmlns="http://www.w3.org/2000/svg" xmlns:xlink="http://www.w3.org/1999/xlink" x="0px" y="0px"
	 viewBox="0 0 512 512" style="fill:rgb(58, 58, 58)" xml:space="preserve">
<g>
	<g>
		<path d="M358.379,85.478c-60.378,0-90.898,73.321-48.11,116.112c26.557,26.555,69.662,26.555,96.216-0.001
			C449.204,158.868,418.822,85.478,358.379,85.478z M358.379,206.487c-14.184,0-27.501-5.507-37.5-15.506
			c-33.425-33.422-9.448-90.5,37.5-90.5c14.183,0,27.5,5.506,37.498,15.504C429.182,149.29,405.494,206.487,358.379,206.487z"/>
	</g>
</g>
<g>
	<g>
		<path d="M506.086,271.495l-67.729-67.731c39.322-62.596-5.58-144.711-79.98-144.711c-24.812,0-48.989,9.492-67.429,28.29
			c-4.424,0-241.619,0-245.545,0c-2.689,0-5.174,1.439-6.51,3.774c-39.459,68.929-36.721,64.079-37.042,64.829
			c-2.494,5.689-1.746-13.571-1.746,276.232c0,11.452,9.316,20.769,20.769,20.769c4.938,0,320.077,0,325.048,0
			c11.453,0,20.771-9.317,20.771-20.769V317.322c0-4.144-3.359-7.501-7.501-7.501c-4.144,0-7.501,3.358-7.501,7.501v114.855
			c0,3.18-2.587,5.767-5.769,5.767H238.995v-37.979c0-11.452-9.317-20.769-20.769-20.769h-69.654
			c-11.452,0-20.769,9.317-20.769,20.769v37.979H20.874c-3.18,0-5.767-2.587-5.767-5.767c0-282.113-0.903-269.8,2.02-272.301
			c0.979-0.85,2.336-1.392,3.747-1.392h106.929v96.727c0,11.453,9.317,20.77,20.769,20.77h69.654
			c11.452,0,20.769-9.316,20.769-20.77V210.98c0-4.143-3.358-7.501-7.501-7.501s-7.501,3.359-7.501,7.501v44.231
			c0,3.181-2.587,5.768-5.767,5.768h-69.654c-3.18,0-5.767-2.587-5.767-5.768v-96.725h81.187v25.697
			c0,4.144,3.358,7.501,7.501,7.501s7.501-3.358,7.501-7.501v-25.697h25.099c2.483,47.214,39.654,85.872,87.597,89.187v43.645
			c0,4.144,3.358,7.501,7.501,7.501c4.143,0,7.501-3.358,7.501-7.501v-43.782c14.989-1.294,29.279-6.072,41.97-14.07
			c2.721,2.721,65.105,65.105,67.726,67.726C489.833,314.638,512,303.335,512,285.773C512,280.38,509.899,275.309,506.086,271.495z
			 M148.573,394.199h69.654c3.18,0,5.767,2.587,5.767,5.767v37.979h-81.187v-37.979h-0.001
			C142.806,396.786,145.393,394.199,148.573,394.199z M129.721,143.484H26.202l23.551-41.138h92.281L129.721,143.484z
			 M145.379,143.484l12.314-41.138h51.412l12.314,41.138H145.379z M237.078,143.484l-12.313-41.138h54.191
			c-8.078,12.544-12.938,26.721-14.459,41.138H237.078z M421.879,225.462c-7.171-7.171-8.381-9.185-12.295-9.185
			c-1.544,0-3.094,0.475-4.42,1.44c-31.133,22.709-75.02,19.915-102.978-8.044c-49.435-49.434-15.029-135.616,56.192-135.616
			c65.492,0,101.855,74.634,64.236,126.213c-2.177,2.985-1.857,7.112,0.757,9.726l6.987,6.988L421.879,225.462z M450.665,254.249
			l-18.178-18.178l8.48-8.48l18.178,18.179L450.665,254.249z M496.998,285.771c0,4.165-6.009,8.801-10,4.811l-25.725-25.725
			l8.479-8.478C497.584,284.211,496.998,282.887,496.998,285.771z"/>
	</g>
</g>
<g>
</g>
<g>
</g>
<g>
</g>
<g>
</g>
<g>
</g>
<g>
</g>
<g>
</g>
<g>
</g>
<g>
</g>
<g>
</g>
<g>
</g>
<g>
</g>
<g>
</g>
<g>
</g>
<g>
</g>
</svg>
