<svg version="1.0" xmlns="http://www.w3.org/2000/svg" width="512px" height="512px" viewBox="0 0 5120 5120" preserveAspectRatio="xMidYMid meet">
<g id="layer101" style="fill:rgb(58, 58, 58)" stroke="none">
</g>
<g id="layer102" fill="#505050" stroke="none">
<path d="M1358 4149 c-186 -15 -364 -69 -545 -164 -144 -74 -250 -153 -368 -270 -126 -126 -209 -244 -291 -410 -106 -216 -148 -398 -148 -640 1 -378 143 -730 410 -1013 207 -221 453 -364 751 -439 100 -25 124 -27 313 -28 161 0 223 4 289 18 171 37 325 95 456 170 73 42 205 137 205 146 0 3 -31 39 -68 80 l-67 73 -84 -59 c-220 -158 -443 -227 -731 -227 -221 1 -392 40 -575 132 -234 117 -443 328 -565 571 -40 81 -94 244 -111 341 -20 112 -18 384 4 490 68 322 237 593 488 780 326 243 786 315 1179 184 107 -36 256 -109 331 -164 23 -16 45 -30 48 -30 9 0 121 146 121 157 0 9 -115 85 -200 131 -235 130 -556 195 -842 171z"/>
<path d="M3530 4153 c-424 -31 -830 -257 -1092 -608 -122 -164 -227 -397 -273 -605 -22 -101 -31 -374 -16 -482 70 -487 371 -903 816 -1126 477 -238 1022 -202 1475 99 132 88 326 282 413 415 298 450 334 1012 97 1484 -196 389 -567 683 -992 785 -99 23 -290 47 -353 43 -16 -1 -50 -3 -75 -5z m-10 -538 l0 -315 -225 0 c-155 0 -225 3 -225 11 0 24 55 170 96 252 79 160 179 279 284 336 30 17 58 31 63 31 4 0 7 -142 7 -315z m296 279 c54 -32 145 -122 192 -192 71 -104 172 -331 172 -386 0 -14 -26 -16 -225 -16 l-225 0 0 316 0 315 23 -7 c12 -3 40 -17 63 -30z m-751 -118 c-57 -90 -130 -247 -170 -366 l-37 -110 -169 0 c-111 0 -169 4 -169 10 0 6 23 46 52 88 62 93 229 263 318 323 68 46 202 120 208 114 2 -1 -13 -28 -33 -59z m1158 33 c111 -57 210 -130 313 -233 88 -88 204 -240 204 -267 0 -5 -75 -9 -173 -9 l-173 0 -33 98 c-37 111 -121 292 -175 375 -51 81 -51 80 37 36z m-1413 -721 c0 -7 -7 -62 -15 -123 -24 -180 -20 -465 11 -677 l7 -48 -206 0 -205 0 -21 90 c-54 229 -47 489 19 703 l21 67 194 0 c149 0 195 -3 195 -12z m710 -418 l0 -430 -252 2 -253 3 -13 100 c-23 185 -16 583 14 728 l6 27 249 0 249 0 0 -430z m729 335 c18 -122 18 -560 0 -675 l-14 -85 -252 -3 -253 -2 0 430 0 430 253 -2 252 -3 14 -90z m592 68 c34 -87 52 -221 53 -388 1 -175 -10 -266 -46 -382 l-19 -63 -195 0 -196 0 6 28 c34 169 40 521 12 706 -9 60 -16 113 -16 118 0 4 88 8 195 8 l195 0 11 -27z m-1945 -1153 c38 -116 123 -296 179 -379 19 -29 34 -56 32 -58 -3 -2 -44 17 -93 42 -174 88 -346 240 -453 399 -79 117 -91 107 118 104 l182 -3 35 -105z m624 -205 c0 -173 -2 -315 -5 -315 -3 0 -29 12 -58 26 -97 50 -219 188 -290 329 -31 62 -97 239 -97 260 0 13 29 15 225 15 l225 0 0 -315z m660 301 c0 -24 -60 -187 -92 -251 -88 -174 -215 -310 -333 -355 l-25 -10 0 315 0 315 225 0 c188 0 225 -2 225 -14z m550 5 c0 -5 -23 -45 -52 -88 -66 -99 -220 -254 -318 -320 -65 -43 -190 -113 -204 -113 -3 0 19 38 49 85 55 89 127 248 166 373 l23 72 168 0 c95 0 168 -4 168 -9z"/>
<path d="M1390 3460 l0 -160 -32 0 c-18 0 -60 -13 -93 -29 -96 -45 -176 -146 -191 -240 l-7 -41 107 0 c100 0 106 1 106 21 0 67 51 89 207 89 201 0 228 -20 221 -158 -3 -66 -6 -77 -30 -96 -15 -11 -119 -52 -232 -89 -223 -74 -270 -100 -326 -182 -44 -64 -60 -117 -60 -201 0 -104 28 -174 99 -245 59 -58 141 -99 201 -99 l30 0 0 -160 0 -160 105 0 105 0 0 159 0 159 37 7 c122 23 253 156 265 270 l3 30 -102 3 -101 3 -7 -31 c-4 -16 -18 -39 -32 -50 -23 -18 -41 -20 -185 -20 -155 0 -159 1 -183 25 -22 22 -25 32 -25 105 0 73 2 83 24 103 14 13 102 48 217 86 219 71 257 90 318 156 67 73 85 123 86 235 0 83 -3 102 -27 150 -50 102 -154 185 -248 197 l-40 6 0 158 0 159 -105 0 -105 0 0 -160z"/>
</g>


</svg>