<?xml version="1.0" encoding="iso-8859-1"?>
<!-- Generator: Adobe Illustrator 19.0.0, SVG Export Plug-In . SVG Version: 6.00 Build 0)  -->
<svg version="1.1" id="Capa_1" xmlns="http://www.w3.org/2000/svg" xmlns:xlink="http://www.w3.org/1999/xlink" x="0px" y="0px"
	 viewBox="0 0 490.667 490.667" style="fill:#ec644b" xml:space="preserve">
<g>
	<g>
		<path d="M480,426.667c-24.277,0-36.885,13.739-46.997,24.789c-9.152,9.984-16.405,17.877-31.296,17.877
			c-14.891,0-22.144-7.893-31.317-17.877c-10.133-11.051-22.763-24.789-47.019-24.789c-24.235,0-36.821,13.739-46.955,24.789
			c-9.152,9.984-16.384,17.877-31.232,17.877c-14.827,0-22.059-7.893-31.211-17.877c-10.112-11.029-22.699-24.789-46.955-24.789
			c-24.256,0-36.843,13.76-46.955,24.789c-9.131,9.984-16.363,17.877-31.211,17.877c-14.848,0-22.08-7.893-31.232-17.877
			c-10.112-11.029-22.72-24.789-46.955-24.789C4.779,426.667,0,431.445,0,437.333C0,443.221,4.779,448,10.667,448
			c14.848,0,22.08,7.893,31.232,17.877c10.112,11.029,22.72,24.789,46.955,24.789s36.821-13.76,46.955-24.789
			c9.131-9.984,16.384-17.877,31.211-17.877s22.059,7.893,31.211,17.877c10.112,11.029,22.72,24.789,46.955,24.789
			c24.235,0,36.821-13.739,46.955-24.789c9.152-9.984,16.384-17.877,31.232-17.877c14.869,0,22.123,7.893,31.296,17.877
			c10.133,11.029,22.741,24.789,47.019,24.789c24.277,0,36.885-13.739,47.019-24.789C457.856,455.893,465.109,448,480,448
			c5.888,0,10.667-4.779,10.667-10.667C490.667,431.445,485.888,426.667,480,426.667z"/>
	</g>
</g>
<g>
	<g>
		<path d="M480,384c-24.277,0-36.885,13.739-46.997,24.789c-9.152,9.984-16.405,17.877-31.296,17.877
			c-14.891,0-22.144-7.893-31.317-17.877C360.256,397.739,347.627,384,323.371,384c-24.235,0-36.821,13.739-46.955,24.789
			c-9.152,9.984-16.384,17.877-31.232,17.877c-14.827,0-22.059-7.893-31.211-17.877C203.861,397.76,191.275,384,167.019,384
			c-24.256,0-36.843,13.76-46.955,24.789c-9.131,9.984-16.363,17.877-31.211,17.877c-14.848,0-22.08-7.893-31.232-17.877
			C47.509,397.76,34.901,384,10.667,384C4.779,384,0,388.779,0,394.667c0,5.888,4.779,10.667,10.667,10.667
			c14.848,0,22.08,7.893,31.232,17.877C52.011,434.24,64.619,448,88.853,448s36.821-13.76,46.955-24.789
			c9.131-9.984,16.384-17.877,31.211-17.877s22.059,7.893,31.211,17.877C208.341,434.24,220.949,448,245.184,448
			c24.235,0,36.821-13.739,46.955-24.789c9.152-9.984,16.384-17.877,31.232-17.877c14.869,0,22.123,7.893,31.296,17.877
			C364.8,434.24,377.408,448,401.685,448c24.277,0,36.885-13.739,47.019-24.789c9.152-9.984,16.405-17.877,31.296-17.877
			c5.888,0,10.667-4.779,10.667-10.667C490.667,388.779,485.888,384,480,384z"/>
	</g>
</g>
<g>
	<g>
		<path d="M446.784,261.675c-1.472-2.773-4.075-4.757-7.125-5.44l-192-42.667c-1.515-0.341-3.115-0.341-4.629,0l-192,42.667
			c-3.051,0.683-5.653,2.667-7.125,5.44c-1.451,2.773-1.621,6.037-0.469,8.939l64,160c2.197,5.504,8.448,8.128,13.867,5.952
			c5.483-2.197,8.149-8.405,5.952-13.867L67.904,274.347l177.429-39.424l177.429,39.424l-59.349,148.352
			c-2.176,5.461,0.491,11.669,5.952,13.867c1.301,0.533,2.645,0.768,3.968,0.768c4.224,0,8.235-2.539,9.92-6.72l64-160
			C448.405,267.712,448.235,264.448,446.784,261.675z"/>
	</g>
</g>
<g>
	<g>
		<path d="M245.333,256c-5.888,0-10.667,4.779-10.667,10.667v170.667c0,5.888,4.779,10.667,10.667,10.667S256,443.221,256,437.333
			V266.667C256,260.779,251.221,256,245.333,256z"/>
	</g>
</g>
<g>
	<g>
		<path d="M394.667,64H96c-5.888,0-10.667,4.779-10.667,10.667V256c0,5.888,4.779,10.667,10.667,10.667s10.667-4.779,10.667-10.667
			V85.333H384V256c0,5.888,4.779,10.667,10.667,10.667c5.888,0,10.667-4.779,10.667-10.667V74.667
			C405.333,68.779,400.555,64,394.667,64z"/>
	</g>
</g>
<g>
	<g>
		<path d="M394.667,192H96c-5.888,0-10.667,4.779-10.667,10.667S90.112,213.333,96,213.333h298.667
			c5.888,0,10.667-4.779,10.667-10.667S400.555,192,394.667,192z"/>
	</g>
</g>
<g>
	<g>
		<path d="M394.667,128H96c-5.888,0-10.667,4.779-10.667,10.667S90.112,149.333,96,149.333h298.667
			c5.888,0,10.667-4.779,10.667-10.667S400.555,128,394.667,128z"/>
	</g>
</g>
<g>
	<g>
		<path d="M352,0H138.667C132.779,0,128,4.779,128,10.667v64c0,5.888,4.779,10.667,10.667,10.667s10.667-4.779,10.667-10.667V21.333
			h192v53.333c0,5.888,4.779,10.667,10.667,10.667s10.667-4.779,10.667-10.667v-64C362.667,4.779,357.888,0,352,0z"/>
	</g>
</g>
<g>
	<g>
		<path d="M160,64c-5.888,0-10.667,4.779-10.667,10.667v160c0,5.888,4.779,10.667,10.667,10.667s10.667-4.779,10.667-10.667v-160
			C170.667,68.779,165.888,64,160,64z"/>
	</g>
</g>
<g>
	<g>
		<path d="M245.333,64c-5.888,0-10.667,4.779-10.667,10.667V224c0,5.888,4.779,10.667,10.667,10.667S256,229.888,256,224V74.667
			C256,68.779,251.221,64,245.333,64z"/>
	</g>
</g>
<g>
	<g>
		<path d="M309.333,64c-5.888,0-10.667,4.779-10.667,10.667v160c0,5.888,4.779,10.667,10.667,10.667S320,240.555,320,234.667v-160
			C320,68.779,315.221,64,309.333,64z"/>
	</g>
</g>
<g>
	<g>
		<path d="M224,0c-5.888,0-10.667,4.779-10.667,10.667v64c0,5.888,4.779,10.667,10.667,10.667s10.667-4.779,10.667-10.667v-64
			C234.667,4.779,229.888,0,224,0z"/>
	</g>
</g>
<g>
</g>
<g>
</g>
<g>
</g>
<g>
</g>
<g>
</g>
<g>
</g>
<g>
</g>
<g>
</g>
<g>
</g>
<g>
</g>
<g>
</g>
<g>
</g>
<g>
</g>
<g>
</g>
<g>
</g>
</svg>
