<!DOCTYPE svg PUBLIC "-//W3C//DTD SVG 20010904//EN" "http://www.w3.org/TR/2001/REC-SVG-20010904/DTD/svg10.dtd">
<svg version="1.0" xmlns="http://www.w3.org/2000/svg" width="512px" height="512px" viewBox="0 0 5120 5120" preserveAspectRatio="xMidYMid meet">
<g id="layer101" style="fill:#ec644b" stroke="none">
 <path d="M473 5094 c-61 -30 -117 -88 -147 -153 -21 -46 -21 -51 -24 -921 -2 -616 0 -893 8 -935 16 -84 72 -193 136 -263 l54 -60 0 -156 0 -156 115 0 115 0 0 106 0 105 98 -7 c53 -4 98 -7 98 -8 1 0 16 -109 33 -241 17 -132 49 -377 71 -545 23 -168 48 -359 56 -425 19 -143 37 -189 100 -250 169 -164 602 -249 1274 -249 855 1 1430 129 1540 344 10 19 25 89 34 155 8 66 33 257 56 425 22 168 54 413 71 545 17 132 32 241 33 241 0 1 45 4 99 8 l97 7 0 -105 0 -106 115 0 115 0 0 156 0 156 54 60 c64 70 120 179 136 263 8 42 10 319 8 935 -3 870 -3 875 -24 921 -30 65 -86 123 -147 153 l-51 26 -293 0 c-282 0 -295 -1 -341 -22 -60 -29 -121 -90 -152 -153 -21 -44 -25 -67 -28 -187 l-4 -138 -1218 0 -1218 0 -4 138 c-3 120 -7 143 -28 187 -31 63 -92 124 -152 153 -46 21 -59 22 -341 22 l-293 0 -51 -26z m587 -202 c50 -25 60 -52 60 -169 l0 -103 -300 0 -300 0 0 109 c0 96 3 112 21 135 12 15 31 32 43 36 11 5 115 9 231 9 181 1 215 -1 245 -17z m3511 -20 c28 -32 29 -35 29 -142 l0 -110 -300 0 -300 0 0 103 c0 117 10 144 60 170 31 15 61 17 258 15 l224 -3 29 -33z m29 -627 l0 -145 -2040 0 -2040 0 0 145 0 145 2040 0 2040 0 0 -145z m-2 -747 c-3 -367 -4 -385 -24 -429 -30 -64 -88 -126 -148 -157 -47 -24 -64 -26 -206 -32 -174 -6 -201 -15 -224 -73 -7 -18 -23 -117 -36 -222 -12 -104 -26 -194 -30 -198 -4 -5 -56 -1 -116 7 -333 46 -740 69 -1254 69 -514 0 -921 -23 -1254 -69 -60 -8 -112 -12 -116 -7 -4 4 -18 94 -30 198 -13 105 -29 204 -36 222 -23 58 -50 67 -223 73 -142 6 -160 8 -207 32 -60 31 -118 93 -148 157 -20 44 -21 62 -24 429 l-3 382 2041 0 2041 0 -3 -382z m-1473 -1268 c323 -17 756 -60 774 -76 4 -3 -84 -693 -96 -757 -15 -76 -295 -160 -698 -208 -225 -26 -829 -38 -1050 -20 -287 24 -504 67 -630 125 -113 53 -94 -17 -181 649 -15 114 -25 209 -23 211 17 15 455 59 744 75 221 12 941 12 1160 1z"/>
 <path d="M801 3673 c-18 -9 -45 -34 -60 -56 -25 -40 -26 -45 -29 -223 -4 -217 6 -252 79 -301 l42 -28 268 -3 c306 -4 335 0 391 59 50 52 61 113 56 293 -4 160 -16 199 -76 244 l-35 27 -301 2 c-265 3 -305 1 -335 -14z m519 -295 l0 -93 -195 0 -195 0 0 93 0 92 195 0 195 0 0 -92z"/>
 <path d="M1895 3666 c-87 -41 -137 -106 -154 -201 -14 -76 -14 -503 0 -581 17 -97 88 -182 178 -212 48 -17 1234 -17 1282 0 90 30 161 115 178 212 14 78 14 505 0 581 -17 95 -67 160 -154 201 l-50 24 -615 0 -615 0 -50 -24z m1261 -210 c21 -29 21 -533 0 -562 -14 -18 -32 -19 -596 -19 -564 0 -582 1 -596 19 -11 16 -14 71 -14 281 0 268 2 284 40 298 8 3 271 5 583 4 550 -2 569 -3 583 -21z"/>
 <path d="M3672 3673 c-78 -38 -101 -105 -102 -290 0 -160 12 -214 58 -263 56 -58 85 -62 391 -58 l268 3 42 28 c73 49 83 84 79 301 -3 179 -4 183 -30 223 -47 71 -58 73 -385 73 -246 0 -293 -3 -321 -17z m518 -295 l0 -93 -195 0 -195 0 0 93 0 92 195 0 195 0 0 -92z"/>
 <path d="M344 2356 c-50 -22 -106 -78 -130 -131 -23 -49 -24 -55 -24 -386 l0 -335 26 -53 c34 -67 98 -116 174 -132 70 -15 244 -7 291 13 52 23 101 70 129 125 l25 48 0 340 c0 380 0 379 -73 453 -61 61 -99 72 -252 71 -91 0 -145 -4 -166 -13z m254 -513 l-3 -288 -82 -3 -83 -3 0 291 0 290 85 0 85 0 -2 -287z"/>
 <path d="M4433 2349 c-49 -24 -98 -76 -122 -128 -14 -31 -16 -83 -16 -371 0 -320 1 -337 21 -380 25 -54 64 -94 119 -123 35 -19 56 -22 170 -22 84 0 144 5 168 14 55 19 106 68 133 126 23 49 24 55 24 383 0 369 0 369 -67 442 -61 69 -96 80 -253 80 -117 0 -141 -3 -177 -21z m257 -504 l0 -286 -77 3 -78 3 -3 283 -2 282 80 0 80 0 0 -285z"/>
 <path d="M502 748 l3 -493 29 -63 c35 -77 114 -153 182 -176 43 -14 221 -16 1848 -16 l1801 0 52 24 c75 35 135 95 169 169 l29 62 3 493 3 493 -113 -3 -113 -3 -5 -476 c-5 -459 -6 -478 -25 -499 -46 -52 43 -50 -1811 -50 -1575 0 -1729 1 -1760 16 -19 9 -40 26 -47 38 -9 15 -13 150 -17 496 l-5 475 -113 3 -113 3 3 -493z"/>
 </g>

</svg>