<svg style="fill:rgb(58, 58, 58)" id="light" enable-background="new 0 0 24 24" height="512" viewBox="0 0 24 24" width="512" xmlns="http://www.w3.org/2000/svg"><g><path d="m18 10c-.3 0-.5-.2-.5-.5v-1c0-.3.2-.5.5-.5s.5.2.5.5v1c0 .3-.2.5-.5.5z"/></g><g><path d="m18.2 9h-1.8c-.2 0-.4-.2-.4-.5s.2-.5.5-.5h1.8c.4 0 .7-.3.7-.8s-.3-.8-.8-.8h-.5c-1 0-1.8-.8-1.8-1.8s.9-1.6 1.9-1.6h1.8c.2 0 .4.2.4.5s-.2.5-.5.5h-1.8c-.4 0-.7.3-.7.8s.3.8.8.8h.5c1 0 1.8.8 1.8 1.8s-.9 1.6-1.9 1.6z"/></g><g><path d="m18 4c-.3 0-.5-.2-.5-.5v-1c0-.3.2-.5.5-.5s.5.2.5.5v1c0 .3-.2.5-.5.5z"/></g><g><path d="m18 12c-3.3 0-6-2.7-6-6s2.7-6 6-6 6 2.7 6 6-2.7 6-6 6zm0-11c-2.8 0-5 2.2-5 5s2.2 5 5 5 5-2.2 5-5-2.2-5-5-5z"/></g><g><path d="m11 24c-.1 0-.2 0-.4 0-3.1-.1-6.1-1.5-8.1-4-1.6-2-2.5-4.5-2.5-7s.9-5.1 2.5-7c2-2.4 4.7-3.8 7.7-4 .3 0 .5.2.5.5s-.2.5-.5.5c-2.7.2-5.2 1.5-7 3.6-1.4 1.8-2.2 4-2.2 6.4s.8 4.6 2.3 6.4c1.8 2.2 4.5 3.5 7.4 3.6h.3.3c2.9-.1 5.6-1.4 7.4-3.6 1.3-1.6 2.1-3.6 2.3-5.7 0-.3.3-.5.5-.5.3 0 .5.3.5.5-.2 2.3-1 4.5-2.5 6.2-2 2.4-5 3.9-8.1 4-.2.1-.3.1-.4.1z"/></g><g><path d="m9.9 9c-.1 0-.1 0 0 0-1.7-.2-3.2-.5-4.6-1-.9-.4-1.8-.8-2.6-1.3-.3-.1-.3-.4-.2-.7.1-.2.5-.3.7-.1.7.5 1.6.9 2.4 1.2 1.4.4 2.8.8 4.3.9.3 0 .5.3.5.5-.1.3-.3.5-.5.5z"/></g><g><path d="m19.1 20.2c-.1 0-.2 0-.3-.1-.7-.5-1.6-.9-2.4-1.2-3.4-1.3-7.3-1.3-10.7 0-.9.3-1.7.7-2.4 1.2-.3.2-.7.1-.8-.1s-.1-.5.2-.7c.8-.5 1.7-.9 2.6-1.3 3.6-1.3 7.8-1.3 11.4 0 .9.3 1.8.8 2.6 1.3.2.1.3.5.2.7-.1.1-.3.2-.4.2z"/></g><g><path d="m11 24c-.1 0-.2 0-.4 0-2.3-.2-4.4-2.2-5.6-5.3-.7-1.7-1-3.7-1-5.7s.3-4 1-5.7c1.1-2.9 3-4.8 5.1-5.3.3-.1.5.1.6.4s-.1.5-.4.6c-1.8.4-3.4 2.1-4.4 4.7-.6 1.6-.9 3.4-.9 5.3s.3 3.7.9 5.3c1 2.8 2.8 4.5 4.8 4.7h.3.3c1.9-.2 3.7-1.9 4.8-4.7.5-1.2.7-2.5.9-3.9 0-.3.3-.5.5-.5.3 0 .5.3.5.5-.1 1.5-.4 2.9-.9 4.1-1.2 3.1-3.3 5.1-5.6 5.3-.3.2-.4.2-.5.2z"/></g><g><path d="m11 24c-.3 0-.5-.2-.5-.5v-12.7c0-.3.2-.5.5-.5s.5.2.5.5v12.7c0 .3-.2.5-.5.5z"/></g><g><path d="m13.2 13.5h-12.7c-.3 0-.5-.2-.5-.5s.2-.5.5-.5h12.7c.3 0 .5.2.5.5s-.2.5-.5.5z"/></g></svg>