<?xml version="1.0"?>
<svg style="fill:rgb(255,255,255)" xmlns="http://www.w3.org/2000/svg" id="Outline" viewBox="0 0 64 64" width="512" height="512"><rect x="19" y="3" width="2" height="11"/><rect x="23" y="3" width="2" height="9"/><polygon points="31 3 29 3 27 3 27 12 29 12 31 12 31 3"/><rect x="33" y="3" width="2" height="9"/><polygon points="41 3 39 3 37 3 37 12 39 12 41 12 41 3"/><rect x="43" y="3" width="2" height="11"/><rect x="47" y="3" width="2" height="11"/><rect x="15" y="3" width="2" height="11"/><path d="M13,19v2.292a6.963,6.963,0,0,0,3.869,6.261l3.155,1.578A8.947,8.947,0,0,1,25,37.181V47.343a14.547,14.547,0,0,0,4,10.041V61a1,1,0,0,0,1,1h4a1,1,0,0,0,1-1V57.384a14.547,14.547,0,0,0,4-10.041V37.181a8.947,8.947,0,0,1,4.976-8.05l3.155-1.578A6.963,6.963,0,0,0,51,21.292V19a3,3,0,0,0-3-3H16A3,3,0,0,0,13,19ZM33,60H31V58h2ZM46.236,25.764l-3.155,1.578A10.937,10.937,0,0,0,37,37.181V47.343A12.57,12.57,0,0,1,33.577,56H30.423A12.57,12.57,0,0,1,27,47.343V37.181a10.937,10.937,0,0,0-6.081-9.839l-3.155-1.578A4.968,4.968,0,0,1,15.05,22h33.9A4.968,4.968,0,0,1,46.236,25.764ZM16,18H48a1,1,0,0,1,1,1v1H15V19A1,1,0,0,1,16,18Z"/></svg>