<svg version="1.0" xmlns="http://www.w3.org/2000/svg" width="600px" height="599px" viewBox="0 0 6000 5990" preserveAspectRatio="xMidYMid meet">
<g id="layer101" style="fill:#3a3a3a" stroke="none">
 <path d="M1803 5576 c11 -80 96 -318 161 -450 72 -148 184 -320 286 -442 109 -129 196 -192 335 -241 l80 -28 1014 -3 c989 -2 1017 -2 1095 18 161 40 280 120 404 273 134 165 237 335 316 521 43 99 103 283 121 364 l7 32 -96 0 c-79 0 -96 -3 -96 -15 0 -28 -72 -239 -114 -335 -84 -191 -242 -426 -364 -543 -62 -59 -156 -110 -222 -122 -35 -6 -36 -4 -212 184 l-177 190 -156 -165 c-87 -90 -160 -164 -164 -164 -4 0 -24 41 -44 91 l-36 91 149 386 c83 212 150 389 150 393 0 5 -42 9 -94 9 l-94 0 -25 -62 c-88 -223 -277 -716 -277 -725 0 -6 20 -60 45 -119 25 -60 45 -112 45 -116 0 -5 -61 -8 -135 -8 -74 0 -135 2 -135 4 0 2 20 53 45 112 25 60 45 116 45 124 0 14 -61 175 -236 623 l-66 167 -94 0 c-52 0 -94 -2 -94 -5 0 -2 68 -179 150 -392 l150 -387 -36 -93 c-21 -51 -41 -93 -45 -93 -4 0 -76 72 -161 160 -84 88 -157 159 -163 158 -6 -2 -88 -85 -181 -186 -164 -178 -170 -183 -203 -178 -46 7 -148 57 -198 97 -100 82 -268 317 -359 504 -51 106 -144 361 -144 398 0 15 -11 17 -91 17 l-92 0 6 -44z m1324 -918 c29 -29 53 -56 53 -60 0 -4 -50 -8 -111 -8 l-111 0 52 60 c29 33 55 60 58 60 4 0 30 -23 59 -52z m1272 -2 c28 -30 51 -57 51 -60 0 -3 -50 -6 -111 -6 l-110 0 52 60 c29 33 55 60 59 60 4 0 30 -24 59 -54z"/>
 <path d="M2440 4220 l0 -90 185 0 185 0 0 90 0 90 -185 0 -185 0 0 -90z"/>
 <path d="M4600 4220 l0 -90 185 0 185 0 0 90 0 90 -185 0 -185 0 0 -90z"/>
 <path d="M3581 4139 c-286 -33 -553 -198 -715 -441 -96 -145 -147 -291 -166 -469 -20 -201 28 -426 129 -598 l30 -50 -45 -36 c-51 -42 -74 -81 -74 -125 0 -16 40 -202 90 -412 100 -425 111 -453 206 -519 86 -59 86 -59 675 -59 517 0 540 1 593 20 68 26 134 83 168 146 29 54 198 753 198 818 0 50 -13 73 -67 122 l-46 41 51 104 c77 155 105 270 105 444 1 202 -40 354 -142 529 -53 92 -188 238 -276 301 -140 100 -312 165 -488 184 -107 12 -120 12 -226 0z m329 -200 c186 -48 358 -164 466 -316 181 -252 208 -570 74 -851 -29 -61 -43 -81 -53 -75 -7 4 -107 79 -221 166 -113 87 -235 171 -269 187 -115 54 -245 60 -367 18 -69 -24 -90 -38 -328 -219 -107 -82 -200 -149 -207 -149 -14 0 -76 129 -100 210 -11 34 -19 106 -22 190 -4 115 -2 148 16 225 80 334 360 588 702 635 85 11 216 2 309 -21z m-88 -1046 c39 -16 600 -435 606 -454 2 -5 -271 -9 -722 -9 -399 0 -726 3 -726 8 1 9 526 408 580 440 72 43 176 49 262 15z m628 -655 c-2 -41 -129 -540 -144 -562 -9 -15 -31 -36 -49 -47 -31 -19 -50 -19 -564 -17 l-533 3 -35 35 c-33 33 -37 46 -94 285 -32 138 -62 265 -66 283 l-7 32 746 0 c590 0 746 -3 746 -12z"/>
 <path d="M3585 2141 c-147 -84 -165 -278 -37 -393 51 -46 99 -61 177 -56 201 13 295 243 162 395 -54 60 -104 83 -187 83 -54 0 -74 -5 -115 -29z m184 -132 c50 -47 50 -111 -1 -154 -39 -33 -87 -33 -127 1 -26 22 -31 33 -31 71 0 36 6 50 29 74 37 36 95 40 130 8z"/>
 <path d="M380 1780 l0 -1400 1870 0 1870 0 0 425 0 425 -103 0 -102 0 -335 -335 -335 -335 -1000 0 -1000 0 -342 342 -343 343 0 692 0 693 1024 0 1024 0 -29 73 c-15 39 -28 80 -29 90 0 16 -45 17 -810 17 l-810 0 0 185 0 185 -275 0 -275 0 0 -1400z m370 1125 l0 -95 -95 0 -95 0 0 95 0 95 95 0 95 0 0 -95z m30 -2130 l215 -215 -218 0 -217 0 0 215 c0 118 1 215 3 215 1 0 99 -97 217 -215z m3160 0 l0 -215 -217 0 -218 0 215 215 c118 118 216 215 217 215 2 0 3 -97 3 -215z"/>
 <path d="M850 2161 l0 -90 43 -3 42 -3 3 -142 3 -143 -41 0 c-22 0 -40 -3 -40 -8 0 -4 38 -45 85 -92 l85 -85 85 85 c47 47 85 88 85 92 0 5 -18 8 -40 8 l-41 0 3 143 3 142 95 0 95 0 3 -142 3 -143 -48 0 -48 0 90 -90 90 -90 88 87 88 88 -41 3 -40 3 0 145 0 144 45 0 45 0 0 90 0 90 -370 0 -370 0 0 -89z"/>
 </g>

</svg>