<?xml version="1.0" encoding="iso-8859-1"?>
<!-- Generator: Adobe Illustrator 19.0.0, SVG Export Plug-In . SVG Version: 6.00 Build 0)  -->
<svg version="1.1" id="Capa_1" xmlns="http://www.w3.org/2000/svg" xmlns:xlink="http://www.w3.org/1999/xlink" x="0px" y="0px"
	 viewBox="0 0 512 512" style="fill:#3a3a3a" xml:space="preserve">
<g>
	<g>
		<path d="M477.867,32.367H34.133C15.309,32.367,0,47.676,0,66.5v315.733c0,18.825,15.309,34.133,34.133,34.133h332.8V399.3h-332.8
			c-9.412,0-17.067-7.654-17.067-17.067V66.5c0-9.412,7.654-17.067,17.067-17.067h443.733c9.412,0,17.067,7.654,17.067,17.067
			v315.733c0,9.412-7.654,17.067-17.067,17.067h-34.133v17.067h34.133c18.825,0,34.133-15.309,34.133-34.133V66.5
			C512,47.676,496.691,32.367,477.867,32.367z"/>
	</g>
</g>
<g>
	<g>
		<rect x="8.533" y="100.634" width="494.933" height="17.067"/>
	</g>
</g>
<g>
	<g>
		<rect x="42.667" y="66.5" width="17.067" height="17.067"/>
	</g>
</g>
<g>
	<g>
		<rect x="76.8" y="66.5" width="17.067" height="17.067"/>
	</g>
</g>
<g>
	<g>
		<rect x="110.933" y="66.5" width="17.067" height="17.067"/>
	</g>
</g>
<g>
	<g>
		<path d="M68.267,185.967v128h375.467v-128H68.267z M426.667,296.9H85.333v-93.867h341.333V296.9z"/>
	</g>
</g>
<g>
	<g>
		<path d="M190.899,220.715c-4.395-1.758-9.344,0.375-11.093,4.753l-9.139,22.861l-9.139-22.861
			c-1.306-3.234-4.437-5.359-7.927-5.359c-3.49,0-6.63,2.125-7.927,5.359l-9.139,22.861l-9.148-22.869
			c-1.749-4.369-6.707-6.494-11.093-4.753c-4.378,1.749-6.502,6.716-4.753,11.093l17.067,42.667
			c1.306,3.243,4.437,5.367,7.927,5.367c3.49,0,6.63-2.125,7.927-5.367l9.139-22.861l9.139,22.861
			c1.306,3.243,4.437,5.367,7.927,5.367c3.49,0,6.622-2.125,7.919-5.359l17.067-42.667
			C197.402,227.43,195.277,222.473,190.899,220.715z"/>
	</g>
</g>
<g>
	<g>
		<path d="M293.299,220.715c-4.343-1.732-9.344,0.375-11.093,4.753l-9.139,22.861l-9.139-22.861
			c-1.306-3.234-4.437-5.359-7.927-5.359c-3.49,0-6.63,2.125-7.927,5.359l-9.139,22.861l-9.148-22.869
			c-1.749-4.369-6.699-6.494-11.093-4.753c-4.378,1.749-6.502,6.716-4.753,11.093l17.067,42.667
			c1.306,3.243,4.437,5.367,7.927,5.367s6.63-2.125,7.927-5.367L256,251.605l9.139,22.861c1.306,3.243,4.437,5.367,7.927,5.367
			c3.49,0,6.622-2.125,7.927-5.359l17.067-42.667C299.81,227.43,297.677,222.473,293.299,220.715z"/>
	</g>
</g>
<g>
	<g>
		<path d="M395.699,220.715c-4.343-1.732-9.344,0.375-11.093,4.753l-9.139,22.861l-9.139-22.861
			c-1.306-3.234-4.437-5.359-7.927-5.359s-6.63,2.125-7.927,5.359l-9.139,22.861l-9.139-22.869
			c-1.749-4.378-6.75-6.485-11.093-4.753c-4.378,1.749-6.511,6.716-4.762,11.093l17.067,42.667c1.306,3.243,4.437,5.367,7.927,5.367
			c3.49,0,6.63-2.125,7.927-5.367l9.139-22.861l9.139,22.861c1.306,3.243,4.437,5.367,7.927,5.367c3.49,0,6.622-2.125,7.927-5.359
			l17.067-42.667C402.21,227.43,400.077,222.473,395.699,220.715z"/>
	</g>
</g>
<g>
	<g>
		<path d="M438.733,390.767l30.225-30.225l-130.816-32.7l32.7,130.816l30.225-30.225l51.2,51.2l37.666-37.666L438.733,390.767z
			 M401.067,404.301l-20.975,20.975l-18.5-73.984l73.984,18.5l-20.975,20.975l51.2,51.2l-13.534,13.534L401.067,404.301z"/>
	</g>
</g>
<g>
</g>
<g>
</g>
<g>
</g>
<g>
</g>
<g>
</g>
<g>
</g>
<g>
</g>
<g>
</g>
<g>
</g>
<g>
</g>
<g>
</g>
<g>
</g>
<g>
</g>
<g>
</g>
<g>
</g>
</svg>
