<svg style="fill:#3a3a3a" height="512" viewBox="0 0 64 64" width="512" xmlns="http://www.w3.org/2000/svg"><g id="warehouse"><path d="m61.527 20.15-29-18a1 1 0 0 0 -1.054 0l-29 18a1 1 0 0 0 -.473.85v40a1 1 0 0 0 1 1h58a1 1 0 0 0 1-1v-40a1 1 0 0 0 -.473-.85zm-53.527 5.85v-2h48v2zm46 2v32h-12v-13a1 1 0 0 0 -1-1h-15v-13a1 1 0 0 0 -1-1h-15v-4zm-24 20h6v4.382l-3 1.5-3-1.5zm-16 0h6v4.382l-3 1.5-3-1.5zm-4-2v-12h2v5a1 1 0 0 0 .553.9l4 2a1 1 0 0 0 .894 0l4-2a1 1 0 0 0 .553-.9v-5h2v12zm4-12h6v4.382l-3 1.5-3-1.5zm-4 14h2v5a1 1 0 0 0 .553.9l4 2a1 1 0 0 0 .894 0l4-2a1 1 0 0 0 .553-.9v-5h2v12h-14zm16 12v-12h2v5a1 1 0 0 0 .553.9l4 2a1 1 0 0 0 .894 0l4-2a1 1 0 0 0 .553-.9v-5h2v12zm34 0h-4v-32h1a1 1 0 0 0 1-1v-4a1 1 0 0 0 -1-1h-50a1 1 0 0 0 -1 1v4a1 1 0 0 0 1 1h1v32h-4v-38.444l28-17.379 28 17.379z"/><path d="m15 49h4v2h-4z"/><path d="m15 35h4v2h-4z"/><path d="m31 49h4v2h-4z"/><path d="m24 13v4a1 1 0 0 0 1 1h14a1 1 0 0 0 1-1v-4a1 1 0 0 0 -1-1h-14a1 1 0 0 0 -1 1zm2 1h12v2h-12z"/><path d="m29 8h6v2h-6z"/></g></svg>